<svg width="22" height="23" viewBox="0 0 22 23" fill="none" xmlns="http://www.w3.org/2000/svg">
<path d="M20.4383 10.6622L11.2483 19.8522C10.1225 20.9781 8.59552 21.6106 7.00334 21.6106C5.41115 21.6106 3.88418 20.9781 2.75834 19.8522C1.63249 18.7264 1 17.1994 1 15.6072C1 14.015 1.63249 12.4881 2.75834 11.3622L11.9483 2.17222C12.6989 1.42166 13.7169 1 14.7783 1C15.8398 1 16.8578 1.42166 17.6083 2.17222C18.3589 2.92279 18.7806 3.94077 18.7806 5.00222C18.7806 6.06368 18.3589 7.08166 17.6083 7.83222L8.40834 17.0222C8.22252 17.208 8.00192 17.3554 7.75913 17.456C7.51634 17.5566 7.25613 17.6083 6.99334 17.6083C6.73055 17.6083 6.47033 17.5566 6.22754 17.456C5.98476 17.3554 5.76416 17.208 5.57834 17.0222C5.39252 16.8364 5.24512 16.6158 5.14455 16.373C5.04398 16.1302 4.99222 15.87 4.99222 15.6072C4.99222 15.3444 5.04398 15.0842 5.14455 14.8414C5.24512 14.5986 5.39252 14.378 5.57834 14.1922L14.0683 5.71222" stroke="#222222" stroke-width="1.5" stroke-linecap="round" stroke-linejoin="round"/>
</svg>
